<svg viewBox="0 0 1024 1024" xmlns="http://www.w3.org/2000/svg">
  <path fill="currentColor"
    d="M499.804 366.47c-28.912 0-60.4-20.138-60.918-52.143 0-32.005 31.494-52.142 60.918-52.142 30.966 0 52.132 21.683 52.132 52.142 0 30.976-21.678 52.142-52.132 52.142zm-231.28 0c-29.425 0-60.913-20.138-60.913-52.143s31.488-52.142 60.913-52.142c30.458 0 52.142 21.683 52.142 52.142 0 30.976-21.684 52.142-52.142 52.142zm619.494 552.386c-4.132 0-8.78-1.04-12.39-3.103l-81.572-44.908c-32.005 7.747-63.488 14.971-95.509 14.971-125.962 0-238.5-66.596-284.964-167.26-1.546.517-3.097.517-4.126.517a355.876 355.876 0 01-33.04 1.557c-37.17 0-67.113-6.195-101.703-13.425l-10.327-2.058-107.382 53.683c-3.61 2.063-7.742 2.586-11.873 2.586-6.19 0-12.39-2.059-17.035-6.196-7.741-6.717-10.844-18.063-7.741-27.873L147.2 645.77C63.575 582.262 19.692 501.724 19.692 412.928c0-169.329 160.035-307.17 356.208-307.17 172.432 0 325.755 107.382 358.282 249.867 152.812 16 271.033 130.094 271.033 263.803 0 70.21-39.752 140.928-111.509 199.787l19.62 65.567c3.093 10.332-.517 21.171-8.77 27.878-4.665 4.132-10.86 6.196-16.538 6.196zm-90.86-101.704c4.137 0 8.781 1.034 12.39 3.098l35.109 19.097-6.718-21.683a26.317 26.317 0 019.283-28.396c68.152-51.102 105.313-110.99 105.313-169.323 0-115.64-116.67-213.73-254.51-213.73-140.421 0-255.027 96.021-255.027 213.73s114.606 213.724 255.027 213.724c30.454 0 61.957-7.752 92.923-15.483 2.084-.522 4.147-1.034 6.21-1.034zM375.9 158.418c-167.782 0-304.584 114.606-304.584 255.027 0 77.957 40.781 145.587 121.319 201.856 9.288 6.712 13.42 18.59 9.81 29.425l-13.42 39.757 59.372-29.947c3.61-1.547 7.741-2.586 11.356-2.586 1.546 0 3.61 0 5.16.522l18.587 3.61c32.005 6.722 59.366 12.4 91.893 12.4 6.713 0 13.942 0 20.65-.532-3.615-16-5.162-32.522-5.162-48.005 0-140.421 128.031-256.573 288.584-265.35C646.415 242.054 518.39 158.419 375.9 158.419zm231.276 431.58c-22.708 0-43.874-21.171-43.874-43.878s21.172-43.879 43.874-43.879c32.015 0 52.147 22.723 52.147 43.879-.005 26.849-26.84 43.878-52.147 43.878zm181.724 0c-22.723 0-43.868-21.171-43.868-43.878s21.16-43.879 43.868-43.879c32.532 0 52.659 22.723 52.659 43.879-.517 21.17-20.649 43.878-52.66 43.878z" />
</svg>
