<svg viewBox="0 0 1024 1024" xmlns="http://www.w3.org/2000/svg"><path fill="currentColor" d="M226.048 125.286c164.297-164.7 430.674-164.7 594.954 0 164.308 164.704 126.054 431.749-38.25 596.449l-259.219 298.213-259.229-298.213c-164.311-164.7-202.551-431.746-38.257-596.449zM523.53 911.507l205.155-243.985c134.414-134.755 172.663-353.26 38.25-488.011-134.438-134.755-352.375-134.755-486.799 0-134.42 134.752-96.171 353.253 38.253 488.011L523.53 911.507zm0-718.046c-105.615 0-191.232 85.839-191.232 191.71 0 105.868 85.617 191.706 191.232 191.706 105.632 0 191.229-85.839 191.229-191.706 0-105.868-85.596-191.71-191.229-191.71zm0 306.725c-63.369 0-114.739-51.483-114.739-115.016s51.367-115.019 114.739-115.019c63.372 0 114.749 51.487 114.749 115.019S586.902 500.186 523.53 500.186z"/></svg>
