<svg viewBox="0 0 1024 1024" xmlns="http://www.w3.org/2000/svg"><path d="M671.1 907.6c-60.5 0-125.1-19.3-192.2-57.5C419.1 816 357.5 766.5 300.6 707c-51.5-54-97.2-113.9-132.1-173.2-35-59.4-55.7-112.4-59.9-153.2-3.5-33.8-.7-65.3 8.2-93.9 7.6-24 19.5-46 35.6-65.3 18.9-22.8 40.1-37.6 54.5-46 9.6-5.6 26.8-14.1 34.8-14.8 9.4-.8 14.5 3.8 23.8 12 5 4.4 12.1 10.9 20.4 18.6 17.8 16.5 39.6 37.3 59.8 57 90 87.6 92.4 97.3 94.2 104.4.3 1.1.6 2 .9 3 5.5 18-1.7 25.8-15.9 41.3-7.8 8.5-20.9 22.7-41.1 46.8-17.3 20.6 9.3 75.9 62.1 128.6 26.5 26.5 56.3 48.9 81.8 61.7 24 11.9 39.7 13 44.7 8.8 26.1-22 41.1-36.5 51-46.1 13.1-12.7 20.9-20.3 34-21l2.5-.1 2.4.5c5.9 1.1 9 4 12.3 7 1.4 1.3 3.4 3.2 6 5.5 5.6 5.2 13 12.2 20.8 19.6 12.3 11.6 36.8 34.9 63.1 60.5C860 761.4 862.7 770 864.9 776.9c2.6 8.2 1 17.2-4.8 26.7-19.8 32.5-100.6 90.5-177.5 103.8l-1.4.3h-1.5c-2.8-.1-5.7-.1-8.6-.1zM239.6 205c-11 5.1-30.4 16-48.7 35.5-32.9 34.9-46.7 80.5-41 135.8 7.6 73.2 83.6 200.3 180.8 302.1C447 800.2 573.1 868.6 677 866c41.1-7.5 79-29.2 98.1-41.5 24.3-15.8 40-30.5 46.7-38.6-8.1-9.5-29.8-32.9-87.5-88.8-31.5-30.6-62.2-59.6-78.2-74.6-1.3 1.2-2.6 2.5-3.9 3.8-10.3 10-25.9 25.2-53.2 48.1-14.1 11.9-41.2 20.9-90-3.4-29.8-14.8-62.7-39.5-92.7-69.5-30.1-30.2-54-62.6-67.1-91.4-22-48.3-10.7-77.4 2.6-93.3 20.8-24.7 34.3-39.4 42.3-48.1 1.7-1.9 3.4-3.8 4.9-5.4-6.3-8.3-28.6-33.1-81.9-85-32.6-31.8-63.3-60.6-77.5-73.3zm586.8 586.8zm-46.6-332c-11.4 0-20.7-9.2-20.8-20.7-.2-59.2-27.5-98.7-50.4-121.3-31-30.7-73.7-49.7-111.6-49.7H596.2c-11.4 0-20.7-9.2-20.8-20.6-.1-11.5 9.2-20.8 20.6-20.9h1c49.2 0 101.7 23 140.8 61.7 19.2 19 34.3 40.9 45 65.2 11.7 26.6 17.6 55.3 17.8 85.5 0 11.5-9.3 20.8-20.8 20.8z" fill="#999"/><path d="M715.9 459.8c-11.5 0-20.8-9.3-20.8-20.8.1-49.9-42.3-106.2-99.3-107-11.5-.1-20.6-9.5-20.5-21 .1-11.4 9.4-20.5 20.7-20.5h.3c38.3.5 74.3 17.7 101.3 48.5 24.8 28.3 39 64.8 39 100 0 11.6-9.3 20.8-20.7 20.8zm128.4 0c-11.5 0-20.8-9.3-20.8-20.8 0-134.1-102-243.2-227.4-243.2-11.5 0-20.8-9.3-20.8-20.8s9.3-20.8 20.8-20.8c72.4 0 140.3 30.2 191.3 85.1 24.4 26.3 43.5 56.7 56.9 90.5 13.8 34.8 20.7 71.5 20.7 109.1 0 11.6-9.2 20.9-20.7 20.9z" fill="currentColor"/></svg>
