<svg viewBox="0 0 1024 1024" xmlns="http://www.w3.org/2000/svg"><path fill="currentColor" d="M1024.001 220.64v574.32c0 5.76-.736 11.456-1.824 17.072v.064l-.224.944A84.336 84.336 0 01939.297 880H101.09a102.72 102.72 0 01-82.512-40.832A95.904 95.904 0 01.017 781.92V236.256a74.08 74.08 0 0152.064-70.784l.736-.208.208-.08A127.648 127.648 0 0189.665 160H973.09c1.328.512 2.64 1.232 4.032 1.44 25.52 4.32 40.592 19.152 45.344 44.496v.08c.88 4.816 1.536 9.712 1.536 14.608zm-512 370.592L963.153 211.76c-66.272-3.888-888.48-1.728-897.84 2.368L512.001 591.2v.064zm133.856-45.152l-114.112 96.144c-13.76 11.52-25.6 11.664-39.2.208l-48.272-40.752-63.84-53.936L81.025 825.28l1.024 2.304h873.328L645.793 546.08h.064zM340.993 514.4l-289.2-244.368v512.48l289.28-268.096h-.08zm344.352-1.648l287.088 260.96V270.944L685.345 512.768z"/></svg>
