<svg viewBox="0 0 1024 1024" xmlns="http://www.w3.org/2000/svg">
  <path
    d="M855.341 297.743c-1.747-14.456-9.637-78.185-69.813-118.663-62.885-42.225-110.23-35.118-125.891-35.118-15.661 0-43.25 5.422-47.285 22.77-3.976 17.468 1.867 25.117 21.082 33.731 19.155 8.614 77.102-.361 115.411 32.949 38.37 33.25 45.96 70.836 47.405 79.812 1.446 8.975 15.42 32.828 33.491 32.105-6.264.24 31.985 4.879 25.6-47.586"
    fill="currentColor" />
  <path
    d="M990.81 234.737c-5.662-37.527-22.708-108.544-106.014-174.441C809.201.602 705.175-.964 663.07.783c-42.165 1.687-71.8 15.902-74.21 33.611-2.53 18.493.663 31.744 28.672 34.334 33.19 3.133 148.3-8.131 219.377 48.49 54.995 43.851 77.884 90.473 93.546 144.625 7.228 24.696 15.058 46.02 39.153 42.707 26.684-3.675 25.48-41.322 21.202-69.873M755.471 457.186c-7.47-50.96-16.685-85.534-23.552-104.99-15.962-46.442-42.285-70.837-81.257-70.837-37.708 0-65.838 12.047-85.836 61.2l-28.732 96.496c-29.877 100.593-37.587 133.722-71.258 215.281-26.203-84.209-29.576-104.448-42.828-177.453-13.372-72.825-27.286-119.025-42.285-149.444-22.166-44.092-70.475-39.755-69.812-39.755-24.095 0-50.96 10.963-66.741 30.72-15.842 19.697-33.973 59.271-47.526 118.603-9.035 43.068-16.745 86.137-25.42 129.265-2.408 10.662-19.154 64.813-50.115 162.455-20.781 65.234-28.792 120.47-28.792 165.827 0 15.36 5.12 28.672 15.3 39.876 12.047 13.131 31.924 20.842 52.705 20.842 36.864 0 74.09-8.795 90.233-60.718 6.325-36.562 12.95-67.282 17.89-94.449 24.335-91.557 23.491-92.34 37.044-137.697 18.673 78.908 23.492 86.618 46.924 158.238l25.299 78.065c15.058 31.081 45.96 49.995 74.27 49.995 28.551 0 61.32-16.384 77.221-42.406 12.047-19.576 23.613-44.634 34.756-75.173l27.106-77.222c31.322-80.294 30.419-76.198 43.972-113.724 16.866 94.75 20.962 104.207 34.153 154.021l26.383 101.617c17.107 43.61 46.14 67.765 88.245 67.765 16.565 0 40.719-11.927 53.97-21.986a59.874 59.874 0 0021.204-46.14c0-7.65-8.614-45.116-35.54-131.915-26.443-85.053-49.573-187.212-66.98-306.417zm52.405 460.68c-12.469 9.456-12.53 10.782-28.07 10.782-30.78 0-40.9-14.818-55.838-55.778l-19.095-75.957C691.32 749.568 660.3 608.376 644.518 519.77c-12.71 35.178-41.924 111.134-71.319 186.61l-27.708 69.09c-10.24 27.768-24.697 71.438-36.141 90.05-18.734 30.54-23.251 41.262-56.923 41.262-26.563 0-36.442-14.577-50.597-43.79l-14.457-45.78c-25.118-77.161-64.933-224.376-80.173-288.948-13.252 44.574-54.212 199.017-76.68 283.346-5.42 29.696-7.107 32.889-12.167 62.344-14.457 46.502-33.611 46.803-48.911 46.803-19.516 0-23.25-2.71-34.575-15.06-9.638-10.54-8.614-23.009-8.614-37.465 0-42.647 9.096-73.186 28.13-132.82 29.094-91.738 44.755-142.576 46.984-152.575 8.252-40.478 17.769-80.957 26.202-121.435 12.71-55.717 23.01-95.171 37.828-113.664 14.878-18.552 23.13-26.684 45.718-26.684 25.72 0 31.865 12.047 43.972 36.262 11.324 22.89 23.492 70.836 36.503 141.553 13.613 75.053 45.538 183.898 68.306 257.084 33.07-80.113 81.198-200.825 108.424-292.623l23.793-90.654c15.24-37.587 23.733-57.525 55.657-57.525 30.78 0 42.045 22.95 57.043 66.56 6.204 17.649 12.83 50.477 19.878 98.605 16.263 111.195 36.502 206.246 61.922 287.804 25.118 81.198 33.069 99.027 33.069 106.135 0 15.48 1.506 33.13-11.806 43.61z"
    fill="currentColor" />
</svg>
