<svg viewBox="0 0 1024 1024" xmlns="http://www.w3.org/2000/svg">
  <path fill="currentColor"
    d="M919.04 292.352v-49.664H122.368v54.784l386.56 263.168c0.512 0.512 1.536 0.512 2.56 0l404.48-266.752 3.072-1.536z m0 67.584L542.72 608.256c-19.968 13.312-46.08 13.312-66.048 0L122.368 366.592v444.928h796.672V359.936z m-796.672-174.08h796.672c31.232 0 56.832 25.6 56.832 56.832v568.832c0 31.232-25.6 56.832-56.832 56.832H122.368c-31.232 0-56.832-25.6-56.832-56.832V242.688c0-31.232 25.6-56.832 56.832-56.832z" />
</svg>
