<svg viewBox="0 0 1084 1024" xmlns="http://www.w3.org/2000/svg">
  <path fill="currentColor"
    d="M60.235294 903.529412V90.352941A90.352941 90.352941 0 0 1 150.588235 0h542.117647A90.352941 90.352941 0 0 1 783.058824 90.352941v242.868706a30.117647 30.117647 0 1 1-60.235295 0V90.352941a30.117647 30.117647 0 0 0-30.117647-30.117647h-542.117647a30.117647 30.117647 0 0 0-30.117647 30.117647V903.529412h331.294118a30.117647 30.117647 0 1 1 0 60.235294h-421.647059a30.117647 30.117647 0 1 1 0-60.235294H60.235294z" />
  <path fill="currentColor"
    d="M240.941176 180.705882v180.705883h361.411765V180.705882H240.941176z m8.613648-60.235294h344.18447C631.747765 120.470588 662.588235 147.456 662.588235 180.705882v180.705883c0 33.249882-30.840471 60.235294-68.848941 60.235294H249.554824C211.546353 421.647059 180.705882 394.661647 180.705882 361.411765V180.705882c0-33.249882 30.840471-60.235294 68.848942-60.235294z" />
  <path fill="currentColor"
    d="M758.362353 643.915294l-60.958118-60.958118a23.913412 23.913412 0 1 1 33.852236-33.852235l50.778353 50.778353 50.778352-50.778353a23.913412 23.913412 0 1 1 33.792 33.852235l-60.416 60.476236v20.781176h71.800471a23.913412 23.913412 0 1 1 0 47.826824h-71.800471v47.887059h71.800471a23.913412 23.913412 0 1 1 0 47.887058h-71.800471v71.800471a23.913412 23.913412 0 1 1-47.887058 0V807.755294h-71.800471a23.913412 23.913412 0 0 1 0-47.887059h71.800471v-47.887059h-71.800471a23.913412 23.913412 0 0 1 0-47.826823h71.800471v-20.299294z" />
  <path fill="currentColor"
    d="M783.058824 1024a301.176471 301.176471 0 1 1 0-602.352941 301.176471 301.176471 0 0 1 0 602.352941z m0-60.235294a240.941176 240.941176 0 1 0 0-481.882353 240.941176 240.941176 0 0 0 0 481.882353z" />
</svg>
