<svg viewBox="0 0 1024 1024" xmlns="http://www.w3.org/2000/svg"><path fill="currentColor" d="M819.221 417.856H299.968l-.021-150.336-.278-4.31c-.17-2.453-.341-4.906-.341-7.402s.17-4.97.341-7.445l.299-13.398c.49-1.408.832-2.901 1.024-4.437 12.65-105.963 102.72-185.877 209.472-185.877 106.773 0 196.843 79.914 209.365 184.085 0 0 1.771 50.795 1.792 55.51.043 11.754 9.579 21.29 21.334 21.29 11.477.832 21.333-9.493 21.333-21.312 0-4.416-1.835-56.981-1.963-58.773C747.115 98.069 638.848 1.984 510.485 1.984c-125.973 0-232.618 92.565-250.901 216.448a21.17 21.17 0 00-2.261 9.557l.021 13.803-.235 3.69c-.234 3.414-.448 6.827-.448 10.305s.214 6.869.448 10.261l.192 151.787h-52.544c-53.44 0-96.938 44.16-96.938 98.432V928.96c0 53.013 42.09 93.013 97.898 93.013h612.566c55.808 0 97.92-40 97.92-93.013V516.31c-.022-54.294-43.52-98.454-96.982-98.454zm54.294 511.147c0 33.066-27.798 50.346-55.254 50.346H205.717c-27.456 0-55.232-17.301-55.232-50.346V516.309c0-30.741 24.342-55.765 54.272-55.765h614.486c29.93 0 54.293 25.024 54.293 55.765v412.694z"/></svg>
