<svg viewBox="0 0 1024 1024" xmlns="http://www.w3.org/2000/svg"><path fill="currentColor" d="M918.613 867.556H105.387a62.777 62.777 0 01-62.72-62.72v-225.82a42.667 42.667 0 1185.333 0v203.206h768V241.778H128v114.858h465.01a42.667 42.667 0 110 85.334H106.24a63.63 63.63 0 01-63.573-63.574V219.164c0-34.588 28.131-62.72 62.72-62.72h813.226c34.589 0 62.72 28.132 62.72 62.72v585.672a62.777 62.777 0 01-62.72 62.72z" fill="#8a8a8a"/><path d="M465.892 655.246H282.14a42.667 42.667 0 110-85.333h183.723a42.667 42.667 0 01.029 85.333z" fill="#8a8a8a"/></svg>
