<svg viewBox="0 0 1024 1024" xmlns="http://www.w3.org/2000/svg"><path fill="currentColor" d="M206.72 73.024l-13.632 8.96-12.16 7.68C58.24 165.376 106.752 431.552 269.76 670.208c158.08 231.488 384 378.752 506.112 315.968l39.168-22.848c49.408-29.504 75.52-54.016 90.496-89.92 22.208-53.12 5.76-109.824-43.328-167.296-74.88-87.552-141.696-113.92-217.344-79.488a242.688 242.688 0 00-21.568 11.2l-20.928 12.608-2.944-2.112a200.32 200.32 0 01-16.768-14.912c-24.32-23.872-54.784-61.824-87.168-109.248-31.808-46.528-55.68-88-68.864-118.592l-4.48-10.88-2.944-8.896 9.792-6.016c91.52-57.6 103.424-130.624 41.088-247.744-28.864-53.824-65.088-87.872-109.76-99.392l-11.2-2.432c-46.08-7.872-83.904 5.056-142.336 42.88zm129.536 32.896c23.168 3.968 44.992 23.04 65.92 62.336 42.752 80.192 40.512 109.696-7.36 142.144l-18.56 11.712-13.568 8.32c-48.832 30.208-17.92 107.2 60.416 224l18.24 26.624 18.048 25.408c68.16 93.376 122.048 140.288 164.992 120.192l5.824-3.008 24.512-15.168 11.968-6.976c3.52-1.92 6.72-3.456 9.792-4.864 39.232-17.856 72.32-4.8 127.296 59.456 32.064 37.504 40.192 65.472 30.848 87.808-6.592 15.808-19.52 28.8-48.512 47.104l-42.496 25.344c-71.04 43.84-269.568-83.008-410.496-289.408-140.992-206.4-181.504-428.928-111.36-472.256l26.816-17.216c43.712-28.288 64.768-35.456 87.68-31.552z"/></svg>
